<svg width="24" height="24" viewBox="0 0 24 24" fill="none" xmlns="http://www.w3.org/2000/svg">
    <path d="M5.37276 24H0.396871V7.97657H5.37276V24ZM2.88182 5.79086C1.2909 5.79086 0 4.47257 0 2.88171C0 2.11744 0.303619 1.38446 0.844065 0.844035C1.38451 0.303608 2.11751 0 2.88182 0C3.64612 0 4.37912 0.303608 4.91957 0.844035C5.46002 1.38446 5.76363 2.11744 5.76363 2.88171C5.76363 4.47257 4.47273 5.79086 2.88182 5.79086ZM23.9957 24H19.031V16.2C19.031 14.3409 18.9932 11.9571 16.444 11.9571C13.8571 11.9571 13.4602 13.9766 13.4602 16.0663V24H8.48945V7.97657H13.2613V10.1623H13.3308C13.9951 8.90314 15.6177 7.57457 18.0384 7.57457C23.0743 7.57457 24 10.8909 24 15.198V24H23.9957Z" fill="white"></path>
</svg>